# xmcd
#
# Track frame offsets:
#	150
#	22862
#	36968
#	53115
#	73673
#	85584
#	100007
#	118640
#	132527
#	153965
#
# Disc length: 2341 seconds
#
# Revision: 1
# Processed by: cddbd v1.5.2PL0 Copyright (c) Steve Scherf et al.
# Submitted via: audiograbber 1.83.01
#
DISCID=7809230a
DTITLE=The Western States - The Western States
DYEAR=2006
DGENRE=Country Pop
TTITLE0=Valemount
TTITLE1=Don't Remind Me
TTITLE2=Off My Mind
TTITLE3=Old Friend
TTITLE4=Rosalita
TTITLE5=Diane
TTITLE6=Hold Me Like A Diamond
TTITLE7=Bad Decision
TTITLE8=She Came Running
TTITLE9=Time On My Own
EXTD=
EXTT0=
EXTT1=
EXTT2=
EXTT3=
EXTT4=
EXTT5=
EXTT6=
EXTT7=
EXTT8=
EXTT9=
PLAYORDER=
